<svg width="28" height="28" viewBox="0 0 28 28" fill="none" xmlns="http://www.w3.org/2000/svg">
    <path d="M15.1934 14.765L21.7875 14.7699L21.7878 14.7699C22.1056 14.7699 22.4104 14.6436 22.6351 14.4189C22.8598 14.1942 22.986 13.8894 22.986 13.5717C22.9861 13.2539 22.8598 12.9491 22.6351 12.7244C22.4104 12.4997 22.1056 12.3735 21.7879 12.3735L21.7875 12.3735L15.1935 12.3791L15.1991 5.78504L15.1991 5.78471C15.1991 5.46693 15.0729 5.16216 14.8482 4.93745C14.6235 4.71274 14.3187 4.58652 14.0009 4.58654C13.6831 4.58655 13.3784 4.71281 13.1537 4.93751C12.929 5.16221 12.8027 5.46697 12.8027 5.78475L12.8027 5.78508L12.8076 12.3792L6.2148 12.3743C6.21457 12.3743 6.21435 12.3743 6.21412 12.3743C6.0566 12.3738 5.90053 12.4044 5.75487 12.4644L5.91037 12.8419L5.75487 12.4644C5.60901 12.5244 5.47648 12.6128 5.36493 12.7243C5.25339 12.8359 5.16502 12.9684 5.10495 13.1143L5.48251 13.2698L5.10495 13.1143C5.04509 13.2596 5.01449 13.4154 5.01491 13.5725C5.01447 13.7297 5.04505 13.8854 5.10491 14.0308C5.16497 14.1767 5.25332 14.3092 5.36487 14.4207C5.47642 14.5323 5.60895 14.6207 5.75482 14.6807C5.90047 14.7407 6.05654 14.7713 6.21405 14.7707C6.21428 14.7707 6.21452 14.7707 6.21476 14.7707L12.8075 14.7651L12.8019 21.3578C12.8019 21.358 12.8019 21.3582 12.8019 21.3583C12.8013 21.5159 12.8319 21.672 12.8919 21.8178C12.9519 21.9636 13.0403 22.0962 13.1518 22.2077C13.2634 22.3193 13.3959 22.4076 13.5418 22.4677C13.6871 22.5275 13.8429 22.5581 14.0001 22.5577C14.1572 22.5581 14.313 22.5275 14.4583 22.4676C14.6042 22.4076 14.7367 22.3192 14.8482 22.2076C14.9598 22.0961 15.0481 21.9636 15.1082 21.8177C15.1682 21.6721 15.1988 21.5161 15.1983 21.3586C15.1983 21.3583 15.1983 21.358 15.1983 21.3578L15.1934 14.765Z" fill="white" stroke="white" stroke-width="0.816667" />
</svg>