<svg width="13" height="12" viewBox="0 0 13 12" fill="none" xmlns="http://www.w3.org/2000/svg">
<path d="M11.3394 2.28685C11.0782 2.02555 10.7681 1.81827 10.4268 1.67685C10.0855 1.53544 9.71969 1.46265 9.35025 1.46265C8.98081 1.46265 8.61499 1.53544 8.27369 1.67685C7.93238 1.81827 7.62229 2.02555 7.36111 2.28685L6.81909 2.82888L6.27706 2.28685C5.74951 1.7593 5.03399 1.46292 4.28792 1.46292C3.54185 1.46292 2.82633 1.7593 2.29878 2.28685C1.77123 2.8144 1.47485 3.52991 1.47485 4.27599C1.47485 5.02206 1.77123 5.73757 2.29878 6.26512L2.84081 6.80715L6.81909 10.7854L10.7974 6.80715L11.3394 6.26512C11.6007 6.00395 11.808 5.69386 11.9494 5.35255C12.0908 5.01125 12.1636 4.64543 12.1636 4.27599C12.1636 3.90654 12.0908 3.54072 11.9494 3.19942C11.808 2.85812 11.6007 2.54802 11.3394 2.28685Z" fill="#444A58" stroke="#444A58" stroke-width="1.02269" stroke-linecap="round" stroke-linejoin="round"/>
</svg>