<svg width="16" height="16" viewBox="0 0 16 16" fill="none" xmlns="http://www.w3.org/2000/svg">
<path d="M6.66275 1.29693V5.83749L5.83647 5.01806C5.71235 4.89425 5.56506 4.79609 5.40301 4.72919C5.24095 4.6623 5.06731 4.62798 4.89199 4.62819C4.71668 4.6284 4.54312 4.66314 4.38123 4.73043C4.21934 4.79772 4.07229 4.89623 3.94847 5.02035C3.82465 5.14447 3.72649 5.29176 3.6596 5.45381C3.5927 5.61586 3.55838 5.7895 3.55859 5.96482C3.55881 6.14014 3.59355 6.3137 3.66084 6.47559C3.72812 6.63748 3.82664 6.78453 3.95075 6.90835L7.06846 10.0135C7.19343 10.1383 7.34194 10.237 7.50536 10.3039C7.66879 10.3708 7.84388 10.4047 8.02047 10.4034C8.19707 10.4021 8.37165 10.3658 8.53409 10.2965C8.69653 10.2272 8.84359 10.1263 8.96675 9.99977L12.0605 6.8112C12.1829 6.68574 12.2795 6.53737 12.3446 6.37459C12.4097 6.21181 12.4422 6.03779 12.44 5.86247C12.4379 5.68715 12.4013 5.51397 12.3322 5.35281C12.2632 5.19165 12.1631 5.04567 12.0376 4.92321C11.9121 4.80074 11.7638 4.70418 11.601 4.63905C11.4382 4.57392 11.2642 4.5415 11.0889 4.54362C10.9135 4.54574 10.7404 4.58237 10.5792 4.65142C10.418 4.72048 10.2721 4.8206 10.1496 4.94606L9.3336 5.80206V1.29693C9.32344 0.949513 9.17828 0.619735 8.92895 0.377591C8.67962 0.135447 8.34574 0 7.99818 0C7.65061 0 7.31673 0.135447 7.0674 0.377591C6.81807 0.619735 6.67291 0.949513 6.66275 1.29693Z" fill="white"/>
<path d="M15.5691 15.5694C15.7059 15.433 15.8144 15.2709 15.8884 15.0924C15.9623 14.9139 16.0002 14.7226 15.9999 14.5294L15.9999 10.8437C16.0054 10.6472 15.9714 10.4515 15.9 10.2683C15.8286 10.0852 15.7212 9.91818 15.5841 9.77723C15.447 9.63628 15.2831 9.52425 15.102 9.44775C14.9209 9.37125 14.7262 9.33183 14.5296 9.33183C14.333 9.33183 14.1384 9.37125 13.9573 9.44775C13.7762 9.52425 13.6123 9.63628 13.4752 9.77723C13.3381 9.91817 13.2307 10.0852 13.1593 10.2683C13.0878 10.4515 13.0539 10.6472 13.0594 10.8437L13.0594 13.0597L2.94165 13.0597L2.94165 10.8437C2.94165 10.4536 2.78669 10.0795 2.51085 9.80363C2.23501 9.52779 1.86089 9.37282 1.4708 9.37282C1.0807 9.37282 0.706585 9.52779 0.430747 9.80363C0.154908 10.0795 -5.67356e-05 10.4536 -5.67697e-05 10.8437L-5.70918e-05 14.5282C-0.000207789 14.7215 0.0377275 14.9129 0.111577 15.0915C0.185428 15.2701 0.293746 15.4323 0.430343 15.569C0.566939 15.7057 0.729136 15.8142 0.907662 15.8882C1.08619 15.9622 1.27755 16.0002 1.4708 16.0002L14.5291 16.0002C14.7223 16.0005 14.9136 15.9626 15.0921 15.8887C15.2706 15.8147 15.4327 15.7062 15.5691 15.5694Z" fill="white"/>
</svg>
