<svg width="24" height="24" viewBox="0 0 24 24" fill="none" xmlns="http://www.w3.org/2000/svg">
<mask id="mask0" mask-type="alpha" maskUnits="userSpaceOnUse" x="3" y="3" width="18" height="18">
<circle cx="12" cy="12" r="8" fill="#C4C4C4" stroke="black" stroke-width="1.5"/>
</mask>
<g mask="url(#mask0)">
<path d="M5.37962 15.241L5.1295 15.7413C5.04497 15.9103 5.01008 16.0999 5.02889 16.288L5.39727 19.9718C5.4535 20.5341 5.96425 20.9382 6.52447 20.8635L12.1323 20.1158C12.6291 20.0495 13.0001 19.6258 13.0001 19.1246V18.1624C13.0001 18.0549 12.9828 17.9481 12.9488 17.8461L12.3438 16.0311C12.1588 15.4761 11.5389 15.1977 11.0012 15.4282L9.12239 16.2334C8.74655 16.3945 8.3105 16.3105 8.02136 16.0213L6.98116 14.9811C6.49851 14.4985 5.68487 14.6305 5.37962 15.241Z" stroke="#AC72F7" stroke-width="1.5" stroke-linecap="round" stroke-linejoin="round"/>
<path d="M20.7554 13.4467L20.9828 11.1733C20.9942 11.0587 20.9858 10.943 20.9579 10.8312L19.3724 4.48937C19.1971 3.78822 18.3588 3.49884 17.7883 3.94255L15.3003 5.87767C14.8602 6.22003 14.7851 6.85627 15.1334 7.29171L15.99 8.36247C16.2869 8.73355 16.2816 9.26229 15.9774 9.62735L15.3669 10.3599C14.8241 11.0112 15.2873 12.0001 16.1351 12.0001H17.0001C17.3149 12.0001 17.6112 12.1483 17.8001 12.4001L18.9604 13.9471C19.5072 14.6763 20.6648 14.3535 20.7554 13.4467Z" stroke="#AC72F7" stroke-width="1.5" stroke-linecap="round" stroke-linejoin="round"/>
</g>
<path d="M8.5 4.80423C9.5572 4.28906 10.7448 4 12 4C16.4183 4 20 7.58172 20 12C20 16.4183 16.4183 20 12 20C7.58172 20 4 16.4183 4 12C4 10.3314 4.51085 8.78211 5.38468 7.5" stroke="#AC72F7" stroke-width="1.5"/>
<path d="M9 5.89189C9 6.42127 8.81914 6.97297 8.39971 7.51351C8.0812 7.92399 7.43928 8.56824 7.1488 8.85452C7.06589 8.93623 6.93411 8.93623 6.8512 8.85452C6.56072 8.56824 5.9188 7.92399 5.60029 7.51351C5.18086 6.97297 5 6.42127 5 5.89189C5 4.84703 5.89543 4 7 4C8.10457 4 9 4.84703 9 5.89189Z" stroke="#AC72F7" stroke-width="1.5"/>
</svg>