<svg width="20" height="20" viewBox="0 0 20 20" fill="none" xmlns="http://www.w3.org/2000/svg">
<path d="M4.47677 6.12385C4.17708 5.9526 3.79529 6.05672 3.62404 6.35642C3.45278 6.65612 3.5569 7.0379 3.8566 7.20916L4.47677 6.12385ZM9.17312 9.52732L9.48321 8.98467L9.17312 9.52732ZM10.8269 9.52732L11.137 10.07L10.8269 9.52732ZM16.1434 7.20916C16.4431 7.0379 16.5473 6.65612 16.376 6.35642C16.2048 6.05672 15.823 5.9526 15.5233 6.12385L16.1434 7.20916ZM15.2084 5.83317V14.1665H16.4584V5.83317H15.2084ZM14.1667 15.2082H5.83335V16.4582H14.1667V15.2082ZM4.79169 14.1665V5.83317H3.54169V14.1665H4.79169ZM14.1667 3.5415H5.83335V4.7915H14.1667V3.5415ZM5.83335 15.2082C5.25806 15.2082 4.79169 14.7418 4.79169 14.1665H3.54169C3.54169 15.4322 4.5677 16.4582 5.83335 16.4582V15.2082ZM15.2084 14.1665C15.2084 14.7418 14.742 15.2082 14.1667 15.2082V16.4582C15.4323 16.4582 16.4584 15.4322 16.4584 14.1665H15.2084ZM16.4584 5.83317C16.4584 4.56752 15.4323 3.5415 14.1667 3.5415V4.7915C14.742 4.7915 15.2084 5.25787 15.2084 5.83317H16.4584ZM4.79169 5.83317C4.79169 5.25787 5.25806 4.7915 5.83335 4.7915V3.5415C4.5677 3.5415 3.54169 4.56752 3.54169 5.83317H4.79169ZM3.8566 7.20916L8.86304 10.07L9.48321 8.98467L4.47677 6.12385L3.8566 7.20916ZM11.137 10.07L16.1434 7.20916L15.5233 6.12385L10.5168 8.98467L11.137 10.07ZM8.86304 10.07C9.56757 10.4726 10.4325 10.4726 11.137 10.07L10.5168 8.98467C10.1966 9.16767 9.80345 9.16767 9.48321 8.98467L8.86304 10.07Z" fill="#5A5A89"/>
</svg>
