<svg width="24" height="24" viewBox="0 0 24 24" fill="none" xmlns="http://www.w3.org/2000/svg">
<path d="M5 7.15385C5 5.96431 5.96431 5 7.15385 5H8.23077C9.4203 5 10.3846 5.96431 10.3846 7.15385V8.23077C10.3846 9.4203 9.42031 10.3846 8.23077 10.3846H7.15385C5.96431 10.3846 5 9.42031 5 8.23077V7.15385Z" stroke="#8F95B2" stroke-width="1.5"/>
<path d="M13.6154 7.15385C13.6154 5.96431 14.5797 5 15.7692 5H16.8461C18.0357 5 19 5.96431 19 7.15385V8.23077C19 9.4203 18.0357 10.3846 16.8461 10.3846H15.7692C14.5797 10.3846 13.6154 9.42031 13.6154 8.23077V7.15385Z" stroke="#8F95B2" stroke-width="1.5"/>
<path d="M5 15.7692C5 14.5797 5.96431 13.6154 7.15385 13.6154H8.23077C9.4203 13.6154 10.3846 14.5797 10.3846 15.7692V16.8462C10.3846 18.0357 9.42031 19 8.23077 19H7.15385C5.96431 19 5 18.0357 5 16.8462V15.7692Z" stroke="#8F95B2" stroke-width="1.5"/>
<path d="M13.6154 15.7692C13.6154 14.5797 14.5797 13.6154 15.7692 13.6154H16.8461C18.0357 13.6154 19 14.5797 19 15.7692V16.8462C19 18.0357 18.0357 19 16.8461 19H15.7692C14.5797 19 13.6154 18.0357 13.6154 16.8462V15.7692Z" stroke="#8F95B2" stroke-width="1.5"/>
</svg>