<svg width="16" height="17" viewBox="0 0 16 17" fill="none" xmlns="http://www.w3.org/2000/svg">
<path d="M8.00336 7.77357C7.36594 7.77357 6.81545 7.29521 6.81545 6.68397V1.71435C6.81545 1.12969 7.33697 0.624756 8.00336 0.624756C8.66974 0.624756 9.19126 1.10312 9.19126 1.71435V6.68397C9.19126 7.29521 8.64077 7.77357 8.00336 7.77357ZM4.43963 5.59438C4.72937 5.38177 4.90321 5.06287 4.90321 4.74396C4.90321 3.84039 3.74427 3.33546 2.96199 3.92012C0.962829 5.40835 -0.225079 7.74699 0.0356817 10.2982C0.412335 13.8328 3.57043 16.6498 7.42389 16.9155C12.0886 17.2345 16 13.8328 16 9.60728C16 7.29521 14.8411 5.2489 13.0157 3.89354C12.2624 3.33546 11.1035 3.84039 11.1035 4.74396C11.1035 5.08944 11.2773 5.38177 11.5671 5.59438C12.8419 6.5511 13.6532 7.98617 13.6532 9.60728C13.6532 12.6369 10.7558 15.0818 7.36594 14.7364C4.75834 14.4706 2.67226 12.5306 2.4115 10.1388C2.20868 8.30508 3.04891 6.6574 4.43963 5.59438Z" fill="#1B1D28"/>
</svg>
