<svg width="23" height="23" viewBox="0 0 23 23" fill="none" xmlns="http://www.w3.org/2000/svg">
<path fill-rule="evenodd" clip-rule="evenodd" d="M19.3402 8.57069L20.321 12.6784C20.3229 12.6865 20.3268 12.694 20.3322 12.7003L21.6633 14.2436C22.7576 15.5123 21.9963 17.4886 20.3337 17.6953L13.5227 18.5423L13.5239 18.55C13.7934 20.4101 12.504 22.1365 10.6439 22.406C8.78386 22.6755 7.05749 21.3861 6.78798 19.526C6.78091 19.4772 6.77778 19.4287 6.77834 19.3809L5.02234 19.5993C3.35973 19.806 2.13763 18.0764 2.88786 16.5783L3.80045 14.756C3.80418 14.7486 3.80608 14.7403 3.80597 14.732L3.74355 9.95239C3.69547 6.27091 6.2053 3.09862 9.70218 2.23741L9.65727 1.87625C9.59401 1.36758 9.9551 0.90394 10.4638 0.840687C10.9724 0.777433 11.4361 1.13852 11.4993 1.64719L11.5442 2.00835C12.1988 2.00445 12.8405 2.08256 13.4574 2.23451C13.4008 2.54787 13.3713 2.87064 13.3713 3.20031C13.3713 3.52954 13.4008 3.85189 13.4572 4.16487C12.6389 3.89474 11.7512 3.79817 10.8455 3.91079C7.81922 4.28712 5.55982 6.87878 5.59964 9.92815L5.66206 14.7078C5.66604 15.0128 5.59682 15.3144 5.4602 15.5873L4.54761 17.4095C4.46126 17.5819 4.60192 17.781 4.79328 17.7572L20.1047 15.8532C20.296 15.8294 20.3836 15.602 20.2577 15.456L18.9266 13.9127C18.7273 13.6817 18.5863 13.4062 18.5155 13.1094L17.4054 8.4601C17.4025 8.44797 17.3996 8.43586 17.3966 8.42377C17.8355 8.53896 18.2962 8.60031 18.7713 8.60031C18.9635 8.60031 19.1533 8.59027 19.3402 8.57069ZM8.62505 19.2598C8.61982 19.2237 8.61257 19.1884 8.60345 19.154L11.6814 18.7712C11.6828 18.7862 11.6847 18.8012 11.6868 18.8162C11.8093 19.6617 11.2232 20.4464 10.3778 20.5689C9.53226 20.6914 8.74755 20.1053 8.62505 19.2598ZM2.40813 7.58916C2.59692 7.11261 2.36364 6.57324 1.88708 6.38444C1.41053 6.19565 0.871156 6.42893 0.682364 6.90549C-0.0906732 8.85682 -0.193769 11.063 0.306519 13.2358C0.421535 13.7353 0.919714 14.047 1.41923 13.932C1.91875 13.8169 2.23045 13.3188 2.11544 12.8193C1.68798 10.9628 1.79156 9.14552 2.40813 7.58916Z" fill="#393360"/>
</svg>
