<svg width="20" height="20" viewBox="0 0 20 20" fill="none" xmlns="http://www.w3.org/2000/svg">
<path d="M11.9937 9.28604C11.9937 10.3873 11.1009 11.2801 9.99966 11.2801C8.89838 11.2801 8.00562 10.3873 8.00562 9.28604C8.00562 8.18476 8.89838 7.29199 9.99966 7.29199C11.1009 7.29199 11.9937 8.18476 11.9937 9.28604Z" stroke="#5A5A89" stroke-width="1.25"/>
<path d="M13.2735 15.8339C13.2735 14.5244 11.8078 13.2148 9.9997 13.2148C8.19163 13.2148 6.72589 14.5244 6.72589 15.8339" stroke="#5A5A89" stroke-width="1.25" stroke-linecap="round" stroke-linejoin="round"/>
<path d="M16.6666 10.0002C16.6666 13.6821 13.6819 16.6668 9.99998 16.6668C6.31808 16.6668 3.33331 13.6821 3.33331 10.0002C3.33331 6.31826 6.31808 3.3335 9.99998 3.3335C13.6819 3.3335 16.6666 6.31826 16.6666 10.0002Z" stroke="#5A5A89" stroke-width="1.25"/>
</svg>
