<svg width="20" height="20" viewBox="0 0 20 20" fill="none" xmlns="http://www.w3.org/2000/svg">
<path d="M15.8618 15.2943L15.0385 16.1633C14.7388 16.4797 14.3056 16.6332 13.8736 16.5762L13.0457 16.467C7.58463 15.7464 3.62284 10.9071 3.99475 5.41123C4.02026 5.03414 4.21465 4.68873 4.52374 4.47122L5.27657 3.94144C5.75426 3.6053 6.4138 3.71845 6.75212 4.19461L7.76687 5.62277C8.06252 6.03888 8.11029 6.58225 7.89178 7.04355L7.54386 7.77805C7.54386 7.77805 6.84211 9.25953 8.94737 11.4818C11.0526 13.704 12.4561 12.5929 12.4561 12.5929L12.8176 12.3067C13.4075 11.8397 14.2563 11.9004 14.7737 12.4466L15.8618 13.5952C16.3132 14.0716 16.3132 14.8178 15.8618 15.2943Z" stroke="#5A5A89" stroke-width="1.25" stroke-linecap="round" stroke-linejoin="round"/>
</svg>
