<svg width="30" height="30" viewBox="0 0 30 30" fill="none" xmlns="http://www.w3.org/2000/svg">
<path d="M21.25 14.503H19V7.75298C19.0005 7.62082 18.9661 7.49087 18.9003 7.37629C18.8344 7.26171 18.7395 7.16656 18.625 7.10048C18.511 7.03465 18.3817 7 18.25 7C18.1184 7 17.989 7.03465 17.875 7.10048L15.625 8.39048L13.375 7.10048C13.261 7.03465 13.1317 7 13 7C12.8684 7 12.739 7.03465 12.625 7.10048L10.375 8.39048L8.12501 7.10048C8.01099 7.03465 7.88166 7 7.75001 7C7.61835 7 7.48902 7.03465 7.37501 7.10048C7.26055 7.16656 7.16559 7.26171 7.09974 7.37629C7.03389 7.49087 6.99948 7.62082 7.00001 7.75298V19.753C7.00001 20.3497 7.23706 20.922 7.65902 21.344C8.08097 21.7659 8.65327 22.003 9.25001 22.003H19.75C20.3467 22.003 20.919 21.7659 21.341 21.344C21.763 20.922 22 20.3497 22 19.753V15.253C22 15.0541 21.921 14.8633 21.7803 14.7227C21.6397 14.582 21.4489 14.503 21.25 14.503ZM9.25001 20.503C9.05109 20.503 8.86033 20.424 8.71968 20.2833C8.57902 20.1427 8.50001 19.9519 8.50001 19.753V9.05048L10 9.90548C10.1158 9.96594 10.2444 9.99751 10.375 9.99751C10.5056 9.99751 10.6343 9.96594 10.75 9.90548L13 8.61548L15.25 9.90548C15.3658 9.96594 15.4944 9.99751 15.625 9.99751C15.7556 9.99751 15.8843 9.96594 16 9.90548L17.5 9.05048V19.753C17.502 20.0088 17.5477 20.2625 17.635 20.503H9.25001ZM20.5 19.753C20.5 19.9519 20.421 20.1427 20.2803 20.2833C20.1397 20.424 19.9489 20.503 19.75 20.503C19.5511 20.503 19.3603 20.424 19.2197 20.2833C19.079 20.1427 19 19.9519 19 19.753V16.003H20.5V19.753Z" fill="#8F95B2"/>
<path d="M13.4684 14.0306H12.3788C12.5137 13.8067 12.7042 13.6174 12.9341 13.4796C13.1824 13.3307 13.4677 13.2474 13.7609 13.2383C14.0094 13.2445 14.2531 13.3054 14.4729 13.4162C14.6931 13.5271 14.8833 13.685 15.0291 13.8775L15.0291 13.8775L15.0296 13.8782C15.1155 13.9859 15.2421 14.0562 15.3815 14.0743C15.5209 14.0924 15.6623 14.0569 15.7747 13.9752L15.7748 13.9751C15.8308 13.9342 15.8778 13.8829 15.9131 13.8243C15.9483 13.7656 15.9712 13.7008 15.9802 13.6335C15.9891 13.5662 15.9841 13.4979 15.9653 13.4325C15.9465 13.3673 15.9145 13.3064 15.8712 13.2533C15.6266 12.9365 15.309 12.6781 14.9431 12.4981C14.5771 12.3181 14.1727 12.2214 13.7613 12.2154L13.7597 12.2154C13.185 12.2314 12.6292 12.4166 12.1682 12.7458C11.7146 13.0697 11.3743 13.5177 11.1923 14.0306H10.4955C10.3547 14.0306 10.2193 14.0841 10.1192 14.1798C10.0191 14.2756 9.9625 14.4058 9.9625 14.542C9.9625 14.6782 10.0191 14.8085 10.1192 14.9043C10.2193 15 10.3547 15.0535 10.4955 15.0535H10.9535V15.0539V15.0543V15.0548V15.0553V15.0557V15.0562V15.0567V15.0571V15.0576V15.0581V15.0585V15.059V15.0595V15.0599V15.0604V15.0608V15.0613V15.0618V15.0622V15.0627V15.0632V15.0636V15.0641V15.0646V15.065V15.0655V15.0659V15.0664V15.0669V15.0673V15.0678V15.0683V15.0687V15.0692V15.0696V15.0701V15.0706V15.071V15.0715V15.072V15.0724V15.0729V15.0733V15.0738V15.0743V15.0747V15.0752V15.0756V15.0761V15.0766V15.077V15.0775V15.078V15.0784V15.0789V15.0793V15.0798V15.0803V15.0807V15.0812V15.0816V15.0821V15.0826V15.083V15.0835V15.084V15.0844V15.0849V15.0853V15.0858V15.0863V15.0867V15.0872V15.0876V15.0881V15.0886V15.089V15.0895V15.0899V15.0904V15.0909V15.0913V15.0918V15.0922V15.0927V15.0932V15.0936V15.0941V15.0945V15.095V15.0955V15.0959V15.0964V15.0968V15.0973V15.0978V15.0982V15.0987V15.0991V15.0996V15.1001V15.1005V15.101V15.1014V15.1019V15.1023V15.1028V15.1033V15.1037V15.1042V15.1046V15.1051V15.1056V15.106V15.1065V15.1069V15.1074V15.1079V15.1083V15.1088V15.1092V15.1097V15.1102V15.1106V15.1111V15.1115V15.112V15.1124V15.1129V15.1134V15.1138V15.1143V15.1147V15.1152V15.1157V15.1161V15.1166V15.117V15.1175V15.1179V15.1184V15.1189V15.1193V15.1198V15.1202V15.1207V15.1212V15.1216V15.1221V15.1225V15.123V15.1234V15.1239V15.1244V15.1248V15.1253V15.1257V15.1262V15.1267V15.1271V15.1276V15.128V15.1285V15.1289V15.1294V15.1299V15.1303V15.1308V15.1312V15.1317V15.1322V15.1326V15.1331V15.1335V15.134V15.1344V15.1349V15.1354V15.1358V15.1363V15.1367V15.1372V15.1377V15.1381V15.1386V15.139V15.1395V15.1399V15.1404V15.1409V15.1413V15.1418V15.1422V15.1427V15.1432V15.1436V15.1441V15.1445V15.145V15.1454V15.1459V15.1464V15.1468V15.1473V15.1477V15.1482V15.1487V15.1491V15.1496V15.15V15.1505V15.1509V15.1514V15.1519V15.1523V15.1528V15.1532V15.1537V15.1542V15.1546V15.1551V15.1555V15.156V15.1564V15.1569V15.1574V15.1578V15.1583V15.1587V15.1592V15.1597V15.1601V15.1606V15.161V15.1615V15.162V15.1624V15.1629V15.1633V15.1638V15.1642V15.1647V15.1652V15.1656V15.1661V15.1665V15.167V15.1675V15.1679V15.1684V15.1688V15.1693V15.1698V15.1702V15.1707V15.1711V15.1716V15.1721V15.1725V15.173V15.1734V15.1739V15.1744V15.1748V15.1753V15.1757V15.1762V15.1767V15.1771V15.1776V15.178V15.1785V15.179V15.1794V15.1799V15.1803V15.1808V15.1813V15.1817V15.1822V15.1826V15.1831V15.1836V15.184V15.1845V15.1849V15.1854V15.1859V15.1863V15.1868V15.1872V15.1877V15.1882V15.1886V15.1891V15.1896V15.19V15.1905V15.1909V15.1914V15.1919V15.1923V15.1928V15.1932V15.1937V15.1942V15.1946V15.1951V15.1956V15.196V15.1965V15.1969V15.1974V15.1979V15.1983V15.1988V15.1993V15.1997V15.2002V15.2006V15.2011V15.2016V15.202V15.2025V15.203V15.2034V15.2039V15.2043V15.2048V15.2053V15.2057V15.2062V15.2067V15.2071V15.2076V15.208V15.2085V15.209V15.2094V15.2099V15.2104V15.2108V15.2113V15.2118V15.2122V15.2127V15.2132V15.2136V15.2141V15.2145V15.215V15.2155V15.2159V15.2164V15.2169V15.2173V15.2178V15.2183V15.2187V15.2192V15.2197V15.2201V15.2206V15.2211V15.2215V15.222V15.2225V15.2229V15.2234V15.2239V15.2243V15.2248V15.2253V15.2257V15.2262V15.2267V15.2271V15.2276V15.2281V15.2285V15.229V15.2295V15.2299V15.2304V15.2309V15.2313V15.2318V15.2323V15.2327V15.2332V15.2337V15.2341V15.2346V15.2351V15.2355V15.236V15.2365V15.2369V15.2374V15.2379V15.2383V15.2388V15.2393V15.2398V15.2402V15.2407V15.2412V15.2416V15.2421V15.2426V15.243V15.2435V15.244V15.2444V15.2449V15.2454V15.2459V15.2463V15.2468V15.2473V15.2477V15.2482V15.2487V15.2492V15.2496V15.2501V15.2506V15.251V15.2515V15.252V15.2525V15.2529V15.2534V15.2539V15.2543V15.2548V15.2553V15.2558V15.2562V15.2567V15.2572V15.2576V15.2581V15.2586V15.2591V15.2595V15.26V15.2605V15.2609V15.2614V15.2619V15.2624V15.2628V15.2633V15.2638V15.2642V15.2647V15.2652V15.2656V15.2661V15.2666V15.267V15.2675V15.268V15.2685V15.2689V15.2694V15.2699V15.2703V15.2708V15.2713V15.2717V15.2722V15.2727V15.2731V15.2736V15.2741V15.2745V15.275V15.2755V15.2759V15.2764V15.2769V15.2773V15.2778V15.2783V15.2787V15.2792V15.2797V15.2801V15.2806V15.2811V15.2815V15.282V15.2825V15.2829V15.2834V15.2839V15.2843V15.2848V15.2853V15.2857V15.2862V15.2867V15.2871V15.2876V15.2881V15.2885V15.289V15.2895V15.2899V15.2904V15.2909V15.2913V15.2918V15.2922V15.2927V15.2932V15.2936V15.2941V15.2946V15.295V15.2955V15.296V15.2964V15.2969V15.2973V15.2978V15.2983V15.2987V15.2992V15.2997V15.3001V15.3006V15.3011V15.3015V15.302V15.3024V15.3029V15.3034V15.3038V15.3043V15.3048V15.3052V15.3057V15.3061V15.3066V15.3071V15.3075V15.308V15.3085V15.3089V15.3094V15.3098V15.3103V15.3108V15.3112V15.3117V15.3122V15.3126V15.3131V15.3135V15.314V15.3145V15.3149V15.3154V15.3158V15.3163V15.3168V15.3172V15.3177V15.3182V15.3186V15.3191V15.3195V15.32V15.3205V15.3209V15.3214V15.3218V15.3223V15.3228V15.3232V15.3237V15.3241V15.3246V15.3251V15.3255V15.326V15.3264V15.3269V15.3274V15.3278V15.3283V15.3287V15.3292V15.3297V15.3301V15.3306V15.331V15.3315V15.332V15.3324V15.3329V15.3333V15.3338V15.3343V15.3347V15.3352V15.3356V15.3361V15.3366V15.337V15.3375V15.3379V15.3384V15.3389V15.3393V15.3398V15.3402V15.3407V15.3412V15.3416V15.3421V15.3425V15.343V15.3434V15.3439V15.3444V15.3448V15.3453V15.3457V15.3462V15.3467V15.3471V15.3476V15.348V15.3485V15.349V15.3494V15.3499V15.3503V15.3508V15.3512V15.3517V15.3522V15.3526V15.3531V15.3535V15.354V15.3545V15.3549V15.3554V15.3558V15.3563V15.3567V15.3572V15.3577V15.3581V15.3586V15.359V15.3595V15.36V15.3604V15.3609V15.3613V15.3618V15.3622V15.3627V15.3632V15.3636V15.3641V15.3645V15.365V15.3655V15.3659V15.3664V15.3668V15.3673V15.3677V15.3682V15.3687V15.3691V15.3696V15.37V15.3705V15.371V15.3714V15.3719V15.3723V15.3728V15.3732V15.3737V15.3742V15.3746V15.3751V15.3755V15.376V15.3765V15.3769V15.3774V15.3778V15.3783V15.3787V15.3792V15.3797V15.3801V15.3806V15.381V15.3815V15.382V15.3824V15.3829V15.3833V15.3838V15.3842V15.3847V15.3852V15.3856V15.3861V15.3865V15.387V15.3875V15.3879V15.3884V15.3888V15.3893V15.3897V15.3902V15.3907V15.3911V15.3916V15.392V15.3925V15.393V15.3934V15.3939V15.3943V15.3948V15.3952V15.3957V15.3962V15.3966V15.3971V15.3975V15.398V15.3985V15.3989V15.3994V15.3998V15.4003V15.4008V15.4012V15.4017V15.4021V15.4026V15.4031V15.4035V15.404V15.4044V15.4049V15.4053V15.4058V15.4063V15.4067V15.4072V15.4076V15.4081V15.4086V15.409V15.4095V15.4099V15.4104V15.4109V15.4113V15.4118V15.4122V15.4127V15.4132V15.4136V15.4141V15.4145V15.415V15.4155V15.4159V15.4164V15.4168V15.4173V15.4178V15.4182V15.4187V15.4191V15.4196V15.4201V15.4205V15.421V15.4214V15.4219V15.4224V15.4228V15.4233V15.4238V15.4242V15.4247V15.4251V15.4256V15.4261V15.4265V15.427V15.4274V15.4279V15.4284V15.4288V15.4293V15.4297V15.4302V15.4307V15.4311V15.4316V15.4321V15.4325V15.433V15.4334V15.4339V15.4344V15.4348V15.4353V15.4358V15.4362V15.4367V15.4371V15.4376V15.4381V15.4385V15.439V15.4395V15.4399V15.4404V15.4408V15.4413V15.4418V15.4422V15.4427V15.4432V15.4436V15.4441V15.4446V15.445V15.4455V15.4459V15.4464V15.4469V15.4473V15.4478V15.4483V15.4487V15.4492V15.4497V15.4501V15.4506V15.451V15.4515V15.452V15.4524H10.4955C10.3547 15.4524 10.2193 15.5059 10.1192 15.6016C10.0191 15.6974 9.9625 15.8276 9.9625 15.9638C9.9625 16.1 10.0191 16.2303 10.1192 16.3261C10.2193 16.4218 10.3547 16.4753 10.4955 16.4753H11.1923C11.3743 16.9881 11.7146 17.4361 12.1682 17.7601C12.6292 18.0893 13.185 18.2744 13.7597 18.2904L13.7597 18.2904L13.7613 18.2904C14.1727 18.2845 14.5771 18.1878 14.9431 18.0077C15.3081 17.8282 15.6251 17.5706 15.8694 17.2549C15.9255 17.2043 15.9697 17.1425 15.9986 17.0738C16.0281 17.004 16.0411 16.9288 16.0367 16.8535C16.0323 16.7782 16.0106 16.7049 15.9733 16.6387C15.936 16.5725 15.884 16.5152 15.8211 16.4706C15.7581 16.4261 15.6859 16.3954 15.6093 16.3806C15.5328 16.3659 15.4539 16.3675 15.378 16.3853C15.3022 16.403 15.2313 16.4366 15.1704 16.4836C15.1103 16.53 15.0614 16.5883 15.0271 16.6547C14.8816 16.846 14.6921 17.003 14.4729 17.1134C14.2531 17.2241 14.0095 17.285 13.761 17.2912C13.4654 17.2799 13.1785 17.1931 12.93 17.0401C12.6994 16.8981 12.5097 16.7039 12.3775 16.4753H13.4684C13.6093 16.4753 13.7446 16.4218 13.8447 16.3261C13.9448 16.2303 14.0014 16.1 14.0014 15.9638C14.0014 15.8276 13.9448 15.6974 13.8447 15.6016C13.7446 15.5059 13.6093 15.4524 13.4684 15.4524H12.0387C12.0288 15.3863 12.0224 15.3197 12.0195 15.2529C12.0224 15.1862 12.0288 15.1196 12.0387 15.0535H13.4684C13.6093 15.0535 13.7446 15 13.8447 14.9043C13.9448 14.8085 14.0014 14.6782 14.0014 14.542C14.0014 14.4058 13.9448 14.2756 13.8447 14.1798C13.7446 14.0841 13.6093 14.0306 13.4684 14.0306Z" fill="#8F95B2" stroke="#8F95B2" stroke-width="0.075"/>
</svg>