<svg width="20" height="20" viewBox="0 0 20 20" fill="none" xmlns="http://www.w3.org/2000/svg">
<path d="M15.1852 7.34465L11.2963 3.84218C10.9398 3.5146 10.4783 3.3335 10 3.3335C9.52175 3.3335 9.06025 3.5146 8.70375 3.84218L4.81489 7.34465C4.60902 7.53381 4.44474 7.76585 4.33298 8.02533C4.22122 8.28481 4.16455 8.56578 4.16675 8.84952V14.6692C4.16675 15.199 4.37161 15.7071 4.73626 16.0817C5.10091 16.4564 5.59548 16.6668 6.11118 16.6668H13.8889C14.4046 16.6668 14.8992 16.4564 15.2638 16.0817C15.6285 15.7071 15.8333 15.199 15.8333 14.6692V8.84286C15.8346 8.56024 15.7775 8.28056 15.6658 8.02229C15.554 7.76403 15.3902 7.53306 15.1852 7.34465ZM11.2963 15.3351H8.70375V12.0057C8.70375 11.8291 8.77204 11.6598 8.89359 11.5349C9.01514 11.41 9.18 11.3399 9.3519 11.3399H10.6482C10.8201 11.3399 10.9849 11.41 11.1065 11.5349C11.228 11.6598 11.2963 11.8291 11.2963 12.0057V15.3351ZM14.537 14.6692C14.537 14.8458 14.4688 15.0152 14.3472 15.1401C14.2257 15.2649 14.0608 15.3351 13.8889 15.3351H12.5926V12.0057C12.5926 11.4759 12.3878 10.9678 12.0231 10.5932C11.6585 10.2186 11.1639 10.0081 10.6482 10.0081H9.3519C8.8362 10.0081 8.34163 10.2186 7.97698 10.5932C7.61233 10.9678 7.40747 11.4759 7.40747 12.0057V15.3351H6.11118C5.93928 15.3351 5.77442 15.2649 5.65287 15.1401C5.53132 15.0152 5.46304 14.8458 5.46304 14.6692V8.84286C5.46315 8.74831 5.48286 8.65488 5.52086 8.56877C5.55886 8.48266 5.61427 8.40586 5.6834 8.34346L9.57227 4.84764C9.69054 4.74089 9.8426 4.68201 10 4.68201C10.1575 4.68201 10.3095 4.74089 10.4278 4.84764L14.3167 8.34346C14.3858 8.40586 14.4412 8.48266 14.4792 8.56877C14.5172 8.65488 14.5369 8.74831 14.537 8.84286V14.6692Z" fill="#5A5A89"/>
</svg>
