<svg width="18" height="18" viewBox="0 0 18 18" fill="none" xmlns="http://www.w3.org/2000/svg">
<path d="M8.97969 18.0007H2.00097C1.73706 18.0038 1.4752 17.9541 1.23083 17.8544C0.986454 17.7547 0.764504 17.6071 0.578063 17.4203C0.391622 17.2335 0.244462 17.0113 0.145256 16.7667C0.0460512 16.5222 -0.00319161 16.2602 0.000430375 15.9963C0.000430375 11.3327 0.000430375 6.66735 0.000430375 2.00029C-0.00195514 1.73795 0.0477865 1.47774 0.146769 1.23478C0.245751 0.991815 0.392002 0.770928 0.577035 0.584939C0.762067 0.398949 0.982197 0.251561 1.22465 0.151327C1.4671 0.0510927 1.72704 9.60556e-06 1.98939 0.00104194C5.93218 0.00104194 9.87154 0.00104194 13.8075 0.00104194C13.8694 -0.00329928 13.9315 0.00595982 13.9895 0.0281699C14.0475 0.0503799 14.0999 0.085003 14.143 0.129611C15.3837 1.37802 16.6308 2.61871 17.8715 3.8684C17.9492 3.95248 17.9948 4.06131 18.0001 4.17568C18.0001 8.12961 18.0001 12.0827 18.0001 16.0349C17.9941 16.5537 17.7856 17.0497 17.4191 17.417C17.0525 17.7842 16.557 17.9937 16.0381 18.0007H8.97969ZM11.3672 3.17413H3.91022C3.57605 3.17413 3.25557 3.30687 3.01928 3.54317C2.78299 3.77946 2.65024 4.09994 2.65024 4.4341V5.88951C2.65024 6.22367 2.78299 6.54415 3.01928 6.78044C3.25557 7.01674 3.57605 7.14948 3.91022 7.14948H11.3672C11.5327 7.14948 11.6965 7.11689 11.8494 7.05357C12.0023 6.99025 12.1412 6.89744 12.2582 6.78044C12.3752 6.66344 12.468 6.52455 12.5313 6.37168C12.5946 6.21881 12.6272 6.05497 12.6272 5.88951V4.4341C12.6272 4.26864 12.5946 4.1048 12.5313 3.95193C12.468 3.79906 12.3752 3.66016 12.2582 3.54317C12.1412 3.42617 12.0023 3.33336 11.8494 3.27004C11.6965 3.20672 11.5327 3.17413 11.3672 3.17413ZM9.00027 14.9382C9.50945 14.9381 10.0073 14.7876 10.4312 14.5056C10.8552 14.2236 11.1863 13.8226 11.3832 13.353C11.58 12.8834 11.6338 12.3661 11.5376 11.8661C11.4415 11.3661 11.1998 10.9056 10.8429 10.5425C10.486 10.1793 10.0297 9.92972 9.53144 9.82498C9.03315 9.72025 8.51502 9.76505 8.0421 9.95376C7.56918 10.1425 7.16255 10.4667 6.87325 10.8857C6.58396 11.3047 6.42489 11.7999 6.41603 12.309C6.41023 12.652 6.47277 12.9929 6.60003 13.3115C6.72728 13.6302 6.9167 13.9203 7.15723 14.1651C7.39776 14.4098 7.6846 14.6042 8.00102 14.7369C8.31745 14.8697 8.65713 14.9381 9.00027 14.9382Z" fill="white"/>
</svg>
