<svg width="24" height="24" viewBox="0 0 24 24" fill="none" xmlns="http://www.w3.org/2000/svg">
<path d="M14.5365 5.41211H15.0365H18.9558C19.0002 5.41211 19.0429 5.42977 19.0743 5.46121C19.1057 5.49265 19.1234 5.53529 19.1234 5.57975V6.86899C19.1234 6.91345 19.1057 6.95609 19.0743 6.98753C19.0429 7.01897 19.0002 7.03663 18.9558 7.03663H5.66764C5.62318 7.03663 5.58054 7.01897 5.5491 6.98753C5.51766 6.95609 5.5 6.91345 5.5 6.86899L5.5 5.57975L5.5 5.57893C5.49996 5.55701 5.50425 5.5353 5.51262 5.51505C5.521 5.49479 5.53328 5.47639 5.54878 5.46089L5.19523 5.10734L5.54878 5.46089C5.56428 5.44539 5.58268 5.43311 5.60294 5.42474C5.62319 5.41637 5.6449 5.41208 5.66682 5.41211H5.66764H9.57153H10.0715V4.91211V4.72355C10.0715 4.63863 10.0885 4.60863 10.0908 4.60469C10.0908 4.60461 10.0909 4.60453 10.0909 4.60443C10.0924 4.60195 10.0981 4.59182 10.1283 4.57634C10.2158 4.5314 10.3891 4.5 10.6919 4.5H13.9117C14.2144 4.5 14.3894 4.53132 14.4786 4.57684C14.5097 4.59275 14.5158 4.60329 14.5172 4.6058L14.5174 4.60605C14.5196 4.60982 14.5365 4.63936 14.5365 4.72355V4.91211V5.41211ZM9.07153 4.91211H5.66764L15.0365 4.72355C15.0365 4.10963 14.53 4 13.9117 4H10.6919C10.0736 4 9.57153 4.10963 9.57153 4.72355V4.91211H9.07153Z" fill="white" stroke="white"/>
<path d="M17.5544 9.31055H7.06837C6.9741 9.31138 6.88108 9.33213 6.7954 9.37143C6.70972 9.41074 6.63332 9.46772 6.57121 9.53863C6.50909 9.60954 6.46268 9.69278 6.435 9.7829C6.40732 9.87301 6.399 9.96795 6.41059 10.0615L7.48605 18.1982C7.52617 18.5145 7.67978 18.8054 7.91833 19.017C8.15689 19.2285 8.46414 19.3462 8.78296 19.3482H15.8398C16.1595 19.3475 16.4681 19.2304 16.7078 19.0188C16.9475 18.8071 17.1019 18.5154 17.1422 18.1982L18.2165 10.0615C18.2284 9.96756 18.22 9.87217 18.1922 9.78168C18.1643 9.69118 18.1175 9.60765 18.0549 9.53663C17.9923 9.46561 17.9152 9.40872 17.829 9.36974C17.7427 9.33076 17.6491 9.31058 17.5544 9.31055Z" fill="white"/>
</svg>
