<svg width="43" height="49" viewBox="0 0 43 49" fill="none" xmlns="http://www.w3.org/2000/svg">
<g filter="url(#filter0_d)">
<path fill-rule="evenodd" clip-rule="evenodd" d="M26.0104 36.3892C25.7265 36.4706 25.481 36.6546 25.3333 36.9104L22.416 41.9654C21.9934 42.6977 20.9365 42.6977 20.5138 41.9654L17.5965 36.9104C17.4488 36.6546 17.2034 36.4706 16.9194 36.3892C10.0368 34.4157 5 28.073 5 20.5535C5 11.4565 12.3716 4.08203 21.4649 4.08203C30.5582 4.08203 37.9298 11.4565 37.9298 20.5535C37.9298 28.073 32.893 34.4157 26.0104 36.3892ZM21.4031 32.4744C28.0306 32.4744 33.4031 27.1018 33.4031 20.4744C33.4031 13.847 28.0306 8.4744 21.4031 8.4744C14.7757 8.4744 9.40314 13.847 9.40314 20.4744C9.40314 27.1018 14.7757 32.4744 21.4031 32.4744Z" fill="#F46363"/>
<circle cx="21.4031" cy="20.4744" r="12" fill="white"/>
<path d="M25.266 18.3299L25.5703 17.889L25.266 18.3299ZM22.2104 16.2201L21.906 16.6609L22.2104 16.2201ZM20.7896 16.2201L21.094 16.6609L20.7896 16.2201ZM17.734 18.3299L18.0384 18.7707H18.0384L17.734 18.3299ZM22.7222 24H22.1865V24.5357H22.7222V24ZM20.2778 24V24.5357H20.8135V24H20.2778ZM26.6919 20.0077C26.9339 20.1778 27.2681 20.1195 27.4382 19.8775C27.6084 19.6355 27.5501 19.3013 27.3081 19.1312L26.6919 20.0077ZM23.947 16.7682C23.705 16.598 23.3708 16.6563 23.2006 16.8983C23.0305 17.1404 23.0887 17.4745 23.3308 17.6447L23.947 16.7682ZM15.6919 19.1312C15.4499 19.3013 15.3916 19.6355 15.5618 19.8775C15.7319 20.1195 16.0661 20.1778 16.3081 20.0077L15.6919 19.1312ZM19.6692 17.6447C19.9113 17.4745 19.9695 17.1404 19.7994 16.8983C19.6292 16.6563 19.295 16.598 19.053 16.7682L19.6692 17.6447ZM25.2421 19.2913V22.8185H26.3135V19.2913H25.2421ZM17.7579 22.8185V19.2913H16.6865V22.8185H17.7579ZM25.5703 17.889L22.5148 15.7792L21.906 16.6609L24.9616 18.7707L25.5703 17.889ZM20.4852 15.7792L17.4297 17.889L18.0384 18.7707L21.094 16.6609L20.4852 15.7792ZM24.5556 23.4643H22.7222V24.5357H24.5556V23.4643ZM23.2579 24V21.637H22.1865V24H23.2579ZM20.2778 23.4643H18.4444V24.5357H20.2778V23.4643ZM22.1111 20.5106H20.8889V21.582H22.1111V20.5106ZM19.7421 21.637V24H20.8135V21.637H19.7421ZM20.8889 20.5106C20.2728 20.5106 19.7421 20.9979 19.7421 21.637H20.8135C20.8135 21.6277 20.8166 21.6166 20.8291 21.6045C20.842 21.592 20.8621 21.582 20.8889 21.582V20.5106ZM23.2579 21.637C23.2579 20.9979 22.7272 20.5106 22.1111 20.5106V21.582C22.1379 21.582 22.158 21.592 22.1709 21.6045C22.1834 21.6166 22.1865 21.6277 22.1865 21.637H23.2579ZM22.5148 15.7792C21.9066 15.3593 21.0934 15.3593 20.4852 15.7792L21.094 16.6609C21.3357 16.494 21.6643 16.494 21.906 16.6609L22.5148 15.7792ZM16.6865 22.8185C16.6865 23.7839 17.4908 24.5357 18.4444 24.5357V23.4643C18.048 23.4643 17.7579 23.1582 17.7579 22.8185H16.6865ZM25.2421 22.8185C25.2421 23.1582 24.952 23.4643 24.5556 23.4643V24.5357C25.5092 24.5357 26.3135 23.7839 26.3135 22.8185H25.2421ZM26.3135 19.2913C26.3135 18.7289 26.0324 18.2081 25.5703 17.889L24.9616 18.7707C25.1419 18.8952 25.2421 19.0905 25.2421 19.2913H26.3135ZM17.7579 19.2913C17.7579 19.0905 17.8581 18.8952 18.0384 18.7707L17.4297 17.889C16.9676 18.2081 16.6865 18.7289 16.6865 19.2913H17.7579ZM23.9444 23.4643H19.0556V24.5357H23.9444V23.4643ZM27.3081 19.1312L23.947 16.7682L23.3308 17.6447L26.6919 20.0077L27.3081 19.1312ZM16.3081 20.0077L19.6692 17.6447L19.053 16.7682L15.6919 19.1312L16.3081 20.0077Z" fill="#F46363"/>
</g>
<defs>
<filter id="filter0_d" x="0.409836" y="-0.442623" width="44.1803" height="49.3443" filterUnits="userSpaceOnUse" color-interpolation-filters="sRGB">
<feFlood flood-opacity="0" result="BackgroundImageFix"/>
<feColorMatrix in="SourceAlpha" type="matrix" values="0 0 0 0 0 0 0 0 0 0 0 0 0 0 0 0 0 0 127 0" result="hardAlpha"/>
<feOffset dy="1.14754"/>
<feGaussianBlur stdDeviation="2.29508"/>
<feColorMatrix type="matrix" values="0 0 0 0 0 0 0 0 0 0 0 0 0 0 0 0 0 0 0.34 0"/>
<feBlend mode="normal" in2="BackgroundImageFix" result="effect1_dropShadow"/>
<feBlend mode="normal" in="SourceGraphic" in2="effect1_dropShadow" result="shape"/>
</filter>
</defs>
</svg>