<svg width="18" height="18" viewBox="0 0 18 18" fill="none" xmlns="http://www.w3.org/2000/svg">
<path fill-rule="evenodd" clip-rule="evenodd" d="M10.5784 0.524709L1.32194 9.83123L0.040953 15.6884C-0.0226056 15.9774 -0.0120434 16.2777 0.0716684 16.5616C0.15538 16.8455 0.309555 17.104 0.520018 17.3132C0.73048 17.5224 0.990476 17.6756 1.2761 17.7588C1.56172 17.842 1.86381 17.8525 2.15458 17.7893L8.04713 16.516L17.3164 7.19424C17.6466 6.86249 17.8312 6.41431 17.83 5.94764C17.8288 5.48097 17.6419 5.03374 17.31 4.70367L13.0994 0.51707C12.9336 0.352488 12.7368 0.222082 12.5202 0.133347C12.3036 0.0446127 12.0715 -0.000701723 11.8373 8.21442e-06C11.603 0.000718152 11.3712 0.0474385 11.1551 0.137484C10.9391 0.22753 10.7431 0.359126 10.5784 0.524709ZM3.54574 15.8718L1.965 14.3018L2.77202 10.6181L7.25548 15.0747L3.54574 15.8718Z" fill="white"/>
</svg>
