<svg width="30" height="30" viewBox="0 0 30 30" fill="none" xmlns="http://www.w3.org/2000/svg">
<path d="M9.90907 22C9.74029 22 9.57843 21.933 9.45909 21.8136C9.33975 21.6943 9.27271 21.5324 9.27271 21.3636V19.4545C9.27271 19.2858 9.33975 19.1239 9.45909 19.0046C9.57843 18.8852 9.74029 18.8182 9.90907 18.8182C10.0778 18.8182 10.2397 18.8852 10.359 19.0046C10.4784 19.1239 10.5454 19.2858 10.5454 19.4545V21.3636C10.5454 21.5324 10.4784 21.6943 10.359 21.8136C10.2397 21.933 10.0778 22 9.90907 22ZM15.6363 21.3636V16.9091C15.6363 16.7403 15.5693 16.5785 15.45 16.4591C15.3306 16.3398 15.1688 16.2727 15 16.2727C14.8312 16.2727 14.6693 16.3398 14.55 16.4591C14.4307 16.5785 14.3636 16.7403 14.3636 16.9091V21.3636C14.3636 21.5324 14.4307 21.6943 14.55 21.8136C14.6693 21.933 14.8312 22 15 22C15.1688 22 15.3306 21.933 15.45 21.8136C15.5693 21.6943 15.6363 21.5324 15.6363 21.3636ZM20.0909 14.3636C19.9221 14.3636 19.7603 14.4307 19.6409 14.55C19.5216 14.6694 19.4545 14.8312 19.4545 15V21.3636C19.4545 21.5324 19.5216 21.6943 19.6409 21.8136C19.7603 21.933 19.9221 22 20.0909 22C20.2597 22 20.4215 21.933 20.5409 21.8136C20.6602 21.6943 20.7273 21.5324 20.7273 21.3636V15C20.7273 14.8312 20.6602 14.6694 20.5409 14.55C20.4215 14.4307 20.2597 14.3636 20.0909 14.3636ZM20.334 8.049C20.257 8.01674 20.1744 8.00008 20.0909 8H17.5454C17.3767 8 17.2148 8.06705 17.0955 8.18639C16.9761 8.30573 16.9091 8.46759 16.9091 8.63636C16.9091 8.80514 16.9761 8.967 17.0955 9.08634C17.2148 9.20568 17.3767 9.27273 17.5454 9.27273H18.5547L15 12.8275L12.9044 10.7319C12.7851 10.6126 12.6233 10.5456 12.4545 10.5456C12.2858 10.5456 12.124 10.6126 12.0046 10.7319L9.45916 13.2774C9.34324 13.3974 9.2791 13.5581 9.28055 13.725C9.282 13.8918 9.34892 14.0514 9.46691 14.1694C9.5849 14.2874 9.74451 14.3543 9.91136 14.3558C10.0782 14.3572 10.239 14.2931 10.359 14.1772L12.4545 12.0816L14.5501 14.1772C14.6694 14.2965 14.8312 14.3635 15 14.3635C15.1687 14.3635 15.3306 14.2965 15.4499 14.1772L19.4545 10.1725V11.1818C19.4545 11.3506 19.5216 11.5125 19.6409 11.6318C19.7603 11.7511 19.9221 11.8182 20.0909 11.8182C20.2597 11.8182 20.4215 11.7511 20.5409 11.6318C20.6602 11.5125 20.7273 11.3506 20.7273 11.1818V8.63636C20.7271 8.51055 20.6897 8.3876 20.6197 8.28306C20.5497 8.17851 20.4503 8.09706 20.334 8.049Z" fill="#8F95B2"/>
</svg>